<?xml version="1.0" encoding="UTF-8"?>
<svg id="Layer_1" xmlns="http://www.w3.org/2000/svg" version="1.1" viewBox="0 0 697 158.7">
  <!-- Generator: Adobe Illustrator 30.0.0, SVG Export Plug-In . SVG Version: 2.1.1 Build 48)  -->
  <defs>
    <style>
      .st0 {
        fill: #faf6ee;
      }
    </style>
  </defs>
  <path class="st0" d="M218.5,138.8V45.6h24.4v18.8h1.4c2.2-13.8,10.5-20.2,26.9-20.2s33.1,13.7,33.1,36.3-11.5,36.3-32,36.3-24.2-7.8-26.3-19.4h-1.4v41.5h-26.1v-.1ZM261.7,93c12,0,16.2-3.3,16.2-12.6s-4.1-12.5-16.2-12.5-17.2,2.2-17.2,12.3v1c0,9.8,5.5,11.8,17.2,11.8h0Z"/>
  <path class="st0" d="M309,80.4c0-22.7,16.5-36.3,40.7-36.3s40.7,13.6,40.7,36.3-16.5,36.3-40.7,36.3-40.7-13.7-40.7-36.3ZM364.7,80.4c0-10.1-3.2-13.4-15-13.4s-15,3.3-15,13.4,3.2,13.3,15,13.3,15-3.2,15-13.3h0Z"/>
  <path class="st0" d="M396.6,115.3V22.6h26v92.7s-26,0-26,0Z"/>
  <path class="st0" d="M428.9,97.6c0-9.8,6.8-16.9,22.6-18.4l28.4-2.8v-1.4c0-7.1-3-8.2-12.3-8.2s-11.2,1.7-11.2,7.5v.6h-26v-.3c0-18.6,15.5-30.4,39.2-30.4s36.1,11.9,36.1,31.4v39.7h-24.4v-14.7h-1.4c-2.6,9.8-11.2,16.1-26.3,16.1s-24.6-7.2-24.6-19.1h-.1ZM461.3,98.6c12.6,0,17.7-1.5,18.4-7.8l-21.3,2.5c-2.3.3-3.3,1.1-3.3,2.6,0,2.2,2.2,2.6,6.2,2.6h0v.1Z"/>
  <path class="st0" d="M513.3,115.3V45.6h24.4v18.3h1.4c1.9-11.5,9.1-19.7,23-19.7s21.5,10.1,21.5,24.1v13.8h-26v-8.2c0-5.8-2.2-7.9-9-7.9s-9.1,2.1-9.1,7.6v41.7h-26.2Z"/>
  <path class="st0" d="M589,39.2v-16.6h26v16.6h-26ZM589,115.3V45.6h26v69.8h-26v-.1Z"/>
  <path class="st0" d="M623.1,91.1v-.6h26v1.4c0,3.9,2.5,4.3,11.9,4.3s10.4-1,10.4-3.3-1.1-2.8-7.6-3.5l-20.2-2.2c-14.4-1.5-22.2-8.3-22.2-20.1s9.8-23,36-23,37.1,8.7,37.1,25.9v.6h-26v-.8c0-3.6-1.4-5.3-11.9-5.3s-9.5,1.1-9.5,3.7,1.1,2.9,9.3,3.7l13.8,1.5c20.3,2.2,26.8,9,26.8,20.8s-13,22.4-36.1,22.4-37.8-9.6-37.8-25.6h0v.1Z"/>
  <path class="st0" d="M93.8,93.8c16.3-16.3,35.3-25,47.2-22.7,10.6-21.7,11.8-41.7,1.2-52.2-16.1-16.1-53.7-4.9-86.4,24.8l38.5,2.2v2.8l-38.5,2.2,25.7,28.8-2,2-28.8-25.7-2.2,38.6h-2.8l-2.2-38.5C13.9,88.5,2.7,126.1,18.8,142.1c10.6,10.6,30.5,9.4,52.2-1.2-2.3-11.9,6.4-30.8,22.7-47.2h.1v.1Z"/>
  <path class="st0" d="M148.2,74.7c-1.9-1.9-4.4-3.1-7.2-3.7-6.5,13.4-16.5,27.4-29.5,40.4s-27,23-40.4,29.5c.6,2.9,1.8,5.3,3.7,7.2,9.8,9.8,34.1,1.2,54.4-19.1s28.8-44.6,19.1-54.4h-.1v.1Z"/>
  <ellipse class="st0" cx="143.93" cy="143.73" rx="18.9" ry="9.5" transform="translate(-59.47 143.87) rotate(-45)"/>
  <path class="st0" d="M55.8,43.6h0l25.7-28.8-2-2-28.8,25.7L48.5,0h-2.8l-2.2,38.5L14.8,12.8l-2,2,25.7,28.8L0,45.7v2.8l38.5,2.2-25.7,28.8,2,2,28.8-25.7h0c1.9-2.1,3.9-4.2,5.9-6.2s4.1-4,6.2-5.9h0l.1-.1Z"/>
  <path class="st0" d="M639.53,135.52c-.68,0-1.28-.1-1.81-.31-.53-.21-.94-.54-1.24-1.01-.3-.46-.44-1.07-.44-1.82,0-.66.15-1.22.44-1.69.3-.47.7-.83,1.22-1.08s1.11-.38,1.78-.38,1.3.11,1.81.34c.51.23.91.56,1.19,1.01.28.44.42.99.42,1.64,0,.1,0,.2,0,.28,0,.08-.01.18-.03.29h-5.35v-1.14h3.72l-.49.71v-.42c0-.37-.09-.62-.28-.77-.19-.14-.53-.22-1.03-.22s-.86.08-1.04.24c-.18.16-.27.45-.27.86v.58c0,.42.09.71.28.86.18.15.53.23,1.04.23.46,0,.76-.04.92-.13s.23-.21.23-.39v-.13h2.26v.14c0,.45-.14.84-.41,1.19-.27.34-.66.61-1.15.81-.5.2-1.08.29-1.76.29Z"/>
  <path class="st0" d="M646.25,135.52c-.62,0-1.14-.13-1.57-.38s-.75-.61-.97-1.09c-.22-.47-.33-1.03-.33-1.68s.11-1.22.32-1.69.53-.83.94-1.08.91-.38,1.51-.38c.71,0,1.25.15,1.61.46.36.31.58.71.67,1.22h.35v1.39h-.23c0-.42-.12-.7-.37-.83s-.62-.19-1.12-.19c-.34,0-.62.04-.83.11-.21.07-.36.19-.44.34s-.13.37-.13.64.04.48.13.64.24.27.44.34c.21.07.48.1.83.1s.61-.03.83-.08c.22-.06.38-.16.49-.32.11-.16.16-.38.16-.67h.23l.17,1.38h-.37c-.1.6-.33,1.04-.7,1.33s-.91.43-1.63.43Z"/>
  <polygon class="st0" points="650.81 135.4 648.7 135.4 648.7 133.7 648.56 133.54 648.56 127.36 650.81 127.36 650.81 135.4"/>
  <path class="st0" d="M654.02,135.52c-.56,0-1.02-.1-1.39-.3-.37-.2-.64-.47-.82-.82-.18-.34-.27-.74-.27-1.18v-3.88h2.26v3.05c0,.42.1.7.29.86s.55.24,1.06.24.87-.07,1.04-.22c.17-.15.26-.42.26-.81h.23l.19,1.09h-.4c-.04.34-.15.65-.32.95-.18.3-.44.54-.78.73-.34.19-.79.28-1.34.28Z"/>
  <polygon class="st0" points="658.7 135.4 656.58 135.4 656.58 133.54 656.44 133.48 656.44 129.35 658.7 129.35 658.7 135.4"/>
  <path class="st0" d="M662.76,135.52c-.71,0-1.33-.13-1.86-.38-.53-.25-.94-.61-1.22-1.09-.29-.47-.43-1.03-.43-1.68s.14-1.22.43-1.69.7-.83,1.22-1.08c.53-.25,1.15-.38,1.86-.38s1.29.11,1.79.33c.51.22.9.53,1.18.93.28.4.41.87.41,1.42v.19h-2.24v-.1c0-.31-.11-.52-.32-.61s-.5-.14-.87-.14c-.42,0-.72.07-.92.21-.2.14-.3.45-.3.92s.1.77.3.91c.2.14.51.21.92.21.37,0,.66-.05.87-.14s.32-.29.32-.61v-.11h2.24v.2c0,.54-.14,1-.41,1.4-.28.4-.67.71-1.18.94-.51.22-1.11.34-1.79.34Z"/>
  <path class="st0" d="M668.7,135.52c-.68,0-1.21-.15-1.58-.44s-.56-.7-.56-1.21c0-.29.07-.54.2-.77.14-.22.35-.41.64-.55.29-.14.66-.23,1.12-.28l2.58-.25v1.25l-1.98.23c-.1,0-.18.03-.22.07-.04.04-.07.09-.07.16,0,.1.05.16.14.19.09.03.23.04.4.04.4,0,.72-.02.95-.07.23-.04.4-.13.5-.25.1-.12.16-.29.16-.52l.17-.05v1.06h-.17c-.11.42-.36.76-.73,1.01s-.89.38-1.55.38Z"/>
  <path class="st0" d="M673.22,135.4h-2.11v-1.34h-.12v-2.15c0-.3-.08-.5-.23-.58s-.43-.13-.83-.13c-.37,0-.62.04-.76.13-.14.09-.21.26-.21.52v.05h-2.26v-.02c0-.54.14-1,.42-1.4.28-.4.68-.7,1.19-.92s1.11-.32,1.79-.32,1.29.11,1.75.33.81.53,1.04.94c.23.4.34.89.34,1.46v3.44Z"/>
  <rect class="st0" x="673.53" y="129.35" width="4.88" height="1.85"/>
  <path class="st0" d="M678.41,135.4h-1.58c-.75,0-1.34-.19-1.77-.56-.43-.38-.64-.96-.64-1.74v-4.79h2.26v4.46c0,.24.05.4.14.48.09.08.27.12.52.12h1.08v2.03Z"/>
  <rect class="st0" x="678.95" y="127.36" width="2.26" height="1.44"/>
  <rect class="st0" x="678.95" y="129.35" width="2.26" height="6.05"/>
  <path class="st0" d="M688.36,130.69c-.3-.47-.71-.83-1.24-1.08-.52-.25-1.14-.38-1.84-.38s-1.31.13-1.85.38c-.53.25-.94.61-1.24,1.08-.29.47-.44,1.03-.44,1.69s.15,1.2.44,1.68c.3.47.71.83,1.24,1.08.54.25,1.15.38,1.85.38s1.32-.13,1.84-.38c.53-.25.94-.61,1.24-1.08.3-.48.44-1.04.44-1.68s-.14-1.22-.44-1.69ZM686.31,133.28c-.18.17-.52.25-1.03.25s-.86-.08-1.04-.25c-.17-.16-.26-.46-.26-.9s.09-.75.26-.92c.18-.16.52-.25,1.04-.25s.85.09,1.03.25c.17.17.26.48.26.92s-.09.74-.26.9Z"/>
  <polygon class="st0" points="691.6 135.4 689.34 135.4 689.34 129.35 691.46 129.35 691.46 131.21 691.6 131.27 691.6 135.4"/>
  <path class="st0" d="M696.39,135.4h-2.26v-3.05c0-.42-.09-.71-.28-.87-.18-.16-.52-.23-1.02-.23s-.83.07-.99.22c-.16.15-.25.42-.25.81h-.23l-.19-1.09h.4c.05-.34.16-.65.33-.95s.43-.54.77-.73c.34-.19.78-.28,1.31-.28s.99.1,1.35.3c.36.2.62.47.79.82.17.34.26.74.26,1.18v3.88Z"/>
</svg>